<?xml version="1.0" standalone="no"?>
<!DOCTYPE svg PUBLIC "-//W3C//DTD SVG 20010904//EN"
 "http://www.w3.org/TR/2001/REC-SVG-20010904/DTD/svg10.dtd">
<svg version="1.0" xmlns="http://www.w3.org/2000/svg"
 width="186.000000pt" height="271.000000pt" viewBox="0 0 186.000000 271.000000"
 preserveAspectRatio="xMidYMid meet">

<g transform="translate(0.000000,271.000000) scale(0.100000,-0.100000)"
fill="#000000" stroke="none">
<path d="M890 2694 c0 -4 25 -34 57 -67 31 -34 72 -86 91 -117 19 -30 36 -56
38 -58 1 -2 14 4 28 13 l25 17 -69 103 c-38 56 -76 105 -85 109 -21 8 -85 8
-85 0z"/>
<path d="M807 2597 c-9 -15 -17 -29 -17 -33 0 -3 22 -31 50 -61 27 -31 65 -87
85 -124 l36 -69 -32 -40 c-18 -22 -35 -38 -38 -35 -3 3 -13 25 -22 49 -19 51
-78 142 -112 174 l-25 23 -21 -30 -22 -30 45 -61 c45 -61 79 -136 91 -202 5
-27 -1 -57 -28 -129 -20 -52 -42 -126 -50 -165 -8 -39 -22 -82 -30 -95 -23
-35 -104 -94 -173 -126 -54 -26 -69 -28 -188 -29 l-128 -1 -13 -31 c-17 -39
-10 -42 107 -49 l86 -6 89 56 c73 46 207 108 285 131 11 3 19 20 23 53 30 221
128 418 287 576 77 77 78 78 62 102 -9 14 -21 25 -26 25 -5 0 -33 -23 -62 -50
l-53 -50 -39 66 c-21 37 -64 94 -94 127 l-56 60 -17 -26z"/>
<path d="M612 2293 l-24 -35 29 -52 c24 -44 28 -62 28 -131 0 -59 -5 -89 -19
-115 -56 -104 -135 -159 -243 -168 -62 -5 -65 -6 -84 -43 l-19 -39 26 -6 c50
-13 151 3 216 33 81 38 143 101 182 183 28 58 31 75 31 155 0 77 -4 99 -29
152 -15 34 -38 71 -50 82 l-21 20 -23 -36z"/>
<path d="M1135 2257 c-119 -125 -214 -314 -231 -462 l-7 -55 35 0 35 0 17 78
c33 152 94 266 203 382 70 74 71 76 57 103 -8 15 -20 27 -27 27 -6 0 -43 -33
-82 -73z"/>
<path d="M1253 2144 c-100 -108 -151 -208 -187 -367 -6 -27 -6 -28 30 -25 36
3 37 5 51 58 21 87 79 195 139 260 57 61 63 82 28 111 -12 10 -22 4 -61 -37z"/>
<path d="M513 2129 c-11 -19 -23 -52 -26 -74 -5 -29 -17 -50 -47 -78 -47 -45
-78 -97 -58 -97 7 0 36 11 65 24 67 32 107 96 107 171 0 27 -5 58 -10 69 -10
17 -13 15 -31 -15z"/>
<path d="M1342 1997 c-50 -64 -102 -173 -109 -227 -5 -38 -4 -40 21 -41 14 -1
31 -2 37 -3 7 -1 18 23 25 52 17 64 32 95 80 157 l37 49 -18 33 c-10 18 -21
33 -25 33 -4 0 -26 -24 -48 -53z"/>
<path d="M1444 1843 c-23 -39 -59 -143 -51 -148 1 -1 21 -9 44 -18 l41 -16 7
39 c4 21 15 55 25 76 19 36 19 37 -1 75 -11 22 -24 39 -29 39 -5 0 -21 -21
-36 -47z"/>
<path d="M1575 1677 c-8 -44 5 -69 50 -95 l35 -21 -36 72 c-20 40 -38 74 -40
76 -1 1 -6 -13 -9 -32z"/>
<path d="M146 1437 c-7 -18 -12 -33 -12 -34 1 -1 29 -9 62 -16 l61 -15 27 34
27 34 -23 0 c-13 0 -47 7 -76 14 l-53 14 -13 -31z"/>
<path d="M94 1309 c-9 -15 -2 -18 20 -9 17 6 18 7 3 13 -9 3 -19 2 -23 -4z"/>
<path d="M138 1223 c12 -2 30 -2 40 0 9 3 -1 5 -23 4 -22 0 -30 -2 -17 -4z"/>
<path d="M238 1223 c12 -2 30 -2 40 0 9 3 -1 5 -23 4 -22 0 -30 -2 -17 -4z"/>
<path d="M348 1213 c7 -3 16 -2 19 1 4 3 -2 6 -13 5 -11 0 -14 -3 -6 -6z"/>
<path d="M173 1133 c15 -2 37 -2 50 0 12 2 0 4 -28 4 -27 0 -38 -2 -22 -4z"/>
<path d="M1565 1080 c-169 -34 -297 -91 -449 -199 -43 -31 -83 -55 -88 -53 -5
1 -7 -1 -4 -6 3 -5 -18 -31 -45 -58 -109 -106 -217 -284 -263 -429 -31 -97
-56 -215 -56 -259 0 -29 4 -34 31 -40 17 -3 35 -6 39 -6 4 0 10 29 14 64 30
296 205 580 463 753 163 109 324 162 520 170 l123 6 -6 26 c-3 14 -7 32 -10
39 -5 18 -161 14 -269 -8z"/>
<path d="M78 1053 c6 -2 18 -2 25 0 6 3 1 5 -13 5 -14 0 -19 -2 -12 -5z"/>
<path d="M298 1053 c7 -3 16 -2 19 1 4 3 -2 6 -13 5 -11 0 -14 -3 -6 -6z"/>
<path d="M940 915 c30 -30 57 -55 59 -55 3 0 -19 25 -49 55 -30 30 -57 55 -59
55 -3 0 19 -25 49 -55z"/>
<path d="M1645 929 c-149 -22 -316 -92 -442 -188 -200 -151 -324 -356 -368
-610 -22 -122 -22 -121 24 -121 l39 0 12 81 c31 215 117 379 278 530 89 84
172 136 284 179 88 34 223 60 313 60 57 0 63 2 69 23 15 55 12 57 -71 56 -43
-1 -105 -5 -138 -10z"/>
<path d="M1030 926 c0 -2 8 -10 18 -17 15 -13 16 -12 3 4 -13 16 -21 21 -21
13z"/>
<path d="M875 850 c27 -27 51 -50 54 -50 3 0 -17 23 -44 50 -27 28 -51 50 -54
50 -3 0 17 -22 44 -50z"/>
<path d="M810 816 c0 -2 8 -10 18 -17 15 -13 16 -12 3 4 -13 16 -21 21 -21 13z"/>
<path d="M178 803 c12 -2 30 -2 40 0 9 3 -1 5 -23 4 -22 0 -30 -2 -17 -4z"/>
<path d="M1598 750 c-145 -36 -257 -98 -366 -204 -133 -128 -221 -302 -238
-472 l-7 -65 39 3 38 3 12 70 c57 336 326 583 656 602 l96 6 6 30 c3 16 6 33
6 38 0 16 -163 8 -242 -11z"/>
<path d="M178 633 c12 -2 32 -2 45 0 12 2 2 4 -23 4 -25 0 -35 -2 -22 -4z"/>
<path d="M550 606 c0 -2 8 -10 18 -17 15 -13 16 -12 3 4 -13 16 -21 21 -21 13z"/>
<path d="M1650 594 c-154 -33 -315 -146 -400 -279 -39 -63 -81 -173 -94 -247
l-7 -37 42 12 c40 12 43 15 59 72 60 214 219 361 436 404 78 15 81 17 96 53
l17 38 -42 -1 c-23 0 -71 -7 -107 -15z"/>
<path d="M440 477 c0 -2 15 -16 33 -33 l32 -29 -29 33 c-28 30 -36 37 -36 29z"/>
<path d="M1634 412 c-132 -46 -249 -164 -289 -290 -7 -23 -7 -23 45 5 31 17
68 50 95 83 23 30 62 66 86 80 46 27 87 65 120 111 24 34 16 36 -57 11z"/>
<path d="M472 175 c0 -16 2 -22 5 -12 2 9 2 23 0 30 -3 6 -5 -1 -5 -18z"/>
</g>
</svg>
